<svg width="510" height="510" viewBox="0 0 510 510" fill="none" xmlns="http://www.w3.org/2000/svg">
<rect width="510" height="510" fill="black"/>
<path d="M145.652 197.376C145.652 194.082 146.28 190.983 147.535 188.08C148.79 185.099 150.516 182.549 152.713 180.431C154.91 178.235 157.459 176.509 160.362 175.253C163.343 173.92 166.481 173.253 169.776 173.253H261.328C264.623 173.253 267.721 173.92 270.624 175.253C273.605 176.509 276.194 178.235 278.391 180.431C280.587 182.549 282.313 185.099 283.568 188.08C284.824 190.983 285.451 194.082 285.451 197.376V219.146H261.328V197.376H169.776V317.876H261.328V296.224H285.451V317.876C285.451 321.171 284.824 324.309 283.568 327.291C282.313 330.193 280.587 332.743 278.391 334.939C276.194 337.136 273.605 338.862 270.624 340.117C267.721 341.372 264.623 342 261.328 342H169.776C166.481 342 163.343 341.372 160.362 340.117C157.459 338.862 154.91 337.136 152.713 334.939C150.516 332.743 148.79 330.193 147.535 327.291C146.28 324.309 145.652 321.171 145.652 317.876V197.376ZM322.392 306.99L335.893 342H330.888L327.787 333.943H311.991L308.891 342H303.886L317.387 306.99H322.392ZM313.896 328.938H325.858L319.901 313.509L313.896 328.938ZM369.56 319.49C369.56 324.373 367.476 327.156 363.31 327.84L369.901 342H364.359L357.865 328.011H346.903V342H341.898V306.99H361.063C366.728 306.99 369.56 309.83 369.56 315.511V319.49ZM346.903 323.006H360.795C362.13 323.006 363.09 322.713 363.676 322.127C364.262 321.541 364.555 320.581 364.555 319.246V315.755C364.555 314.42 364.262 313.46 363.676 312.874C363.09 312.288 362.13 311.995 360.795 311.995H346.903V323.006Z" fill="white"/>
</svg>
