{
    "asset": {
        "version": "2.0",
        "generator": "Open Asset Import Library (assimp v5.2.cf7d3637)"
    },
    "extensionsUsed": [
        "KHR_materials_volume",
        "FB_ngon_encoding"
    ],
    "accessors": [
        {
            "bufferView": 0,
            "byteOffset": 0,
            "componentType": 5126,
            "count": 166164,
            "type": "VEC3",
            "max": [
                1.0010130405426026,
                0.46977299451828005,
                0.008403999730944634
            ],
            "min": [
                -1.0026500225067139,
                -0.4720030128955841,
                -0.010812999680638314
            ]
        },
        {
            "bufferView": 1,
            "byteOffset": 0,
            "componentType": 5126,
            "count": 166164,
            "type": "VEC3",
            "max": [
                0.9999556541442871,
                0.9999935626983643,
                1.0
            ],
            "min": [
                -0.9999802112579346,
                -0.9999781847000122,
                -1.0
            ]
        },
        {
            "bufferView": 2,
            "byteOffset": 0,
            "componentType": 5126,
            "count": 166164,
            "type": "VEC2",
            "max": [
                0.97705078125,
                0.99951171875
            ],
            "min": [
                0.00030803680419921875,
                0.00030803680419921875
            ]
        },
        {
            "bufferView": 3,
            "byteOffset": 0,
            "componentType": 5125,
            "count": 166164,
            "type": "SCALAR",
            "max": [
                166163
            ],
            "min": [
                0
            ]
        }
    ],
    "buffers": [
        {
            "byteLength": 5981904,
            "uri": "result.bin"
        }
    ],
    "bufferViews": [
        {
            "buffer": 0,
            "byteOffset": 0,
            "byteLength": 1993968,
            "target": 34962
        },
        {
            "buffer": 0,
            "byteOffset": 1993968,
            "byteLength": 1993968,
            "target": 34962
        },
        {
            "buffer": 0,
            "byteOffset": 3987936,
            "byteLength": 1329312,
            "target": 34962
        },
        {
            "buffer": 0,
            "byteOffset": 5317248,
            "byteLength": 664656,
            "target": 34963
        }
    ],
    "images": [
        {
            "uri": "data:image/jpeg;base64,"
        }
    ],
    "materials": [
        {
            "name": "material",
            "pbrMetallicRoughness": {
                "baseColorTexture": {
                    "index": 0
                },
                "metallicFactor": 0.0,
                "roughnessFactor": 0.800000011920929
            },
            "doubleSided": true
        },
        {
            "name": "material"
        }
    ],
    "meshes": [
        {
            "name": "meshes[0]",
            "primitives": [
                {
                    "mode": 4,
                    "material": 0,
                    "indices": 3,
                    "attributes": {
                        "POSITION": 0,
                        "NORMAL": 1,
                        "TEXCOORD_0": 2
                    }
                }
            ]
        }
    ],
    "nodes": [
        {
            "name": "nodes[0]",
            "mesh": 0
        }
    ],
    "samplers": [
        {
            "magFilter": 9729,
            "minFilter": 9987
        }
    ],
    "scenes": [
        {
            "nodes": [
                0
            ]
        }
    ],
    "textures": [
        {
            "source": 0,
            "sampler": 0
        }
    ],
    "scene": 0
}